<svg xmlns="http://www.w3.org/2000/svg" xmlns:xlink="http://www.w3.org/1999/xlink" id="delete" width="20" height="20" x="0" y="0" enable-background="new 0 0 20 20" version="1.1" viewBox="0 0 20 20" xml:space="preserve"><g><g><path fill="#FFF" fill-rule="evenodd" d="M11.9,10l7-7c0.5-0.5,0.5-1.4,0-1.9c-0.5-0.5-1.4-0.5-1.9,0l-7,7 l-7-7c-0.5-0.5-1.4-0.5-1.9,0C0.6,1.7,0.6,2.5,1.1,3l7,7l-7,7c-0.5,0.5-0.5,1.4,0,1.9c0.5,0.5,1.4,0.5,1.9,0l7-7l7,7 c0.5,0.5,1.4,0.5,1.9,0c0.5-0.5,0.5-1.4,0-1.9L11.9,10z" clip-rule="evenodd"/></g></g></svg>